PathFileType	4	(X/Y/Z)	pose_F01_0-62.trc
DataRate	CameraRate	NumFrames	NumMarkers	Units	OrigDataRate	OrigDataStartFrame	OrigNumFrames
30	30	11	21	m	30	49	62
Frame#	Time	CHip			RHip			RKnee			RAnkle			RBigToe			RSmallToe			RHeel			LHip			LKnee			LAnkle			LBigToe			LSmallToe			LHeel			Neck			Nose			RShoulder			RElbow			RWrist			LShoulder			LElbow			LWrist			
		X1	Y1	Z1	X2	Y2	Z2	X3	Y3	Z3	X4	Y4	Z4	X5	Y5	Z5	X6	Y6	Z6	X7	Y7	Z7	X8	Y8	Z8	X9	Y9	Z9	X10	Y10	Z10	X11	Y11	Z11	X12	Y12	Z12	X13	Y13	Z13	X14	Y14	Z14	X15	Y15	Z15	X16	Y16	Z16	X17	Y17	Z17	X18	Y18	Z18	X19	Y19	Z19	X20	Y20	Z20	X21	Y21	Z21	
49	1.6333333333333333	-0.2418630013137017	1.889290615324949	-0.4933328516171501	-0.2524126474986633	1.8857064128639052	-0.4238972647756953	-0.25354344441098975	1.7312581212427078	-0.4031298649682151													-0.2250221036597293	1.8904260725942281	-0.5554138854359405	-0.22608763923229194	1.7404238244761503	-0.5199899849327891	-0.2083129101651686	1.6117620066399407	-0.47698714551173166	-0.23286953254834883	1.5584566699411269	-0.548234065047698	-0.2210386769266402	1.5673843582075058	-0.5655841453978369	-0.22020949110625682	1.6207652982199225	-0.4614796926984166	-0.23721737213943836	2.0515382134879117	-0.4999681043966894	-0.25096327320220635	2.1249140400486457	-0.5535810866735261	-0.2559939164792082	2.0507985020298682	-0.4104864539871885	-0.26236171965763877	1.9685705196336927	-0.33056885028988814	-0.2742952701562167	1.8966449323432937	-0.3180745820326461	-0.2139087891640886	2.0524208556905723	-0.591669291824346	-0.6458899179324865	1.9447183642864907	-0.11683660645041694	-0.19865811692581326	1.8937368127292857	-0.6175486584840593
50	1.6666666666666667	-0.24277603423018734	1.8879629243992602	-0.49649509373590617	-0.2533314012945677	1.8858196431085548	-0.42711150455026897	-0.2540815934913682	1.7326117078299128	-0.4026615688142644													-0.22579819940019577	1.88958408867306	-0.5582649296290522	-0.2236479260449038	1.7432825619303278	-0.5229385651180787	-0.2083129101651686	1.6117620066399407	-0.47698714551173166	-0.23294920577905054	1.5586470046430965	-0.5482650249202555	-0.22112116090594752	1.5676525645447805	-0.5656259003568762	-0.22020949110625682	1.6207652982199225	-0.4614796926984166	-0.2362490038655056	2.0517661310823	-0.5050260814154335	-0.25096624201093554	2.127359048348153	-0.5539584669469121	-0.2569585366449044	2.0508985933460857	-0.41357856759164563	-0.25832314428351427	1.9682732214343606	-0.3261043047105525	-0.2723379744344725	1.897736199202432	-0.3058205856919767	-0.2137933446849188	2.05352182411225	-0.5916769934116166	-0.19968909821348826	1.9792692948308073	-0.6008202182128111	-0.19865811692581326	1.8937368127292857	-0.6175486584840593
51	1.7	-0.24386947174241613	1.8887366449267877	-0.49996187763125954	-0.2555547434035329	1.8870529308287993	-0.43376419365018287	-0.25461974257174663	1.7339652944171178	-0.4021932726603137													-0.22487958475613148	1.8919836777367462	-0.5639362222325822	-0.22290021746179095	1.7426392169028824	-0.5192594969065967	-0.2083129101651686	1.6117620066399407	-0.47698714551173166	-0.23301067910573256	1.5590795957916312	-0.5483134245315728	-0.22113420401215444	1.568014542125024	-0.5656451072508615	-0.22020949110625682	1.6207652982199225	-0.4614796926984166	-0.23623608103428692	2.0517946849653885	-0.5051725947254118	-0.2509901080699896	2.127366108770833	-0.5539874474331242	-0.25801692019088857	2.0510024946058976	-0.41679642779065246	-0.25667288365949115	1.9686490156947554	-0.32854093839711956	-0.2703270242705436	1.8992067454917874	-0.31433332791221696	-0.21262351902073398	2.053732754763381	-0.5967488915795772	-0.3111928530653416	1.9704059030094274	-0.4841038294258635	-0.19865811692581326	1.8937368127292857	-0.6175486584840593
52	1.7333333333333334	-0.24512997944997073	1.88817802086238	-0.5032180674145152	-0.2599978040035302	1.8853870880624315	-0.4383015017638393	-0.25461931765768353	1.730549304535326	-0.4018332818213112													-0.22610821124745656	1.8916954229193266	-0.5673004214242048	-0.22215394964556381	1.7390311314238815	-0.5154320015814308	-0.2083129101651686	1.6117620066399407	-0.47698714551173166	-0.2329149172486552	1.5585174271932274	-0.5481671034784507	-0.2232067532353574	1.567950214905681	-0.5634289252806205	-0.22020949110625682	1.6207652982199225	-0.4614796926984166	-0.2371857101539172	2.0519855022341704	-0.5083593377426392	-0.2529248394225275	2.127355743196354	-0.5519808554716097	-0.257354238980475	2.050088768069952	-0.42208092375519646	-0.2546771847088863	1.9699159203796655	-0.33090246345146207	-0.26867233203194457	1.9028486418963266	-0.32582463191046196	-0.21348554185075674	2.0553422167717676	-0.600466173959212	-0.42269660791719493	1.9615425111880473	-0.36738744063891593	-0.19865811692581326	1.8937368127292857	-0.6175486584840593
53	1.7666666666666666	-0.2439346478934823	1.8858675876399196	-0.4998024824354802	-0.2577130617332679	1.8844591011305225	-0.439978159332161	-0.2544209998597717	1.7297874505207447	-0.40194787208172944													-0.22577298543857927	1.8923448146500699	-0.567214963946228	-0.22083893304437577	1.7394559441579307	-0.5212844995324802	-0.2083129101651686	1.6117620066399407	-0.47698714551173166	-0.2339458758805031	1.5584578880523914	-0.5471371867374204	-0.22298044190252933	1.566783962933817	-0.5634529274409337	-0.22020949110625682	1.6207652982199225	-0.4614796926984166	-0.23907898037599723	2.0523226195894675	-0.5146260916286802	-0.25388855057514	2.1262892761246475	-0.5542115425699208	-0.2582560765700898	2.0513382277637473	-0.4252179135821394	-0.25471310361550303	1.971300900140637	-0.3314798026183463	-0.2656819909701934	1.9027321284635523	-0.32473931679436185	-0.2132143383630243	2.054704798303172	-0.6083378052212921	-0.5342003627690483	1.9526791193666675	-0.2506710518519684	-0.19865811692581326	1.8937368127292857	-0.6175486584840593
54	1.8	-0.2419885331559039	1.885814711053033	-0.5019671429578226	-0.25763464989314405	1.8845810687220061	-0.44006254632206754	-0.25431589656346343	1.7305425058457438	-0.4033363321974668													-0.225797551261689	1.8898144928942278	-0.5669550029877312	-0.2250111218176693	1.7415960232366454	-0.5257120761469892	-0.2083129101651686	1.6117620066399407	-0.47698714551173166	-0.23497683451235102	1.5583983489115554	-0.5461072699963903	-0.22343980878437694	1.566442787110874	-0.5629427829532875	-0.22020949110625682	1.6207652982199225	-0.4614796926984166	-0.2400556270129053	2.0524034595771803	-0.5177466734353993	-0.253870408693943	2.1262723563415884	-0.5542915515204097	-0.25941464895886185	2.0503499213206737	-0.4283709326601718	-0.25633098032771334	1.9704935973107705	-0.34331307722402393	-0.26126466070779103	1.898541889880476	-0.3335760668138612	-0.21412509089795076	2.054721318013164	-0.6114900501407374	-0.6457041176209016	1.9438157275452876	-0.13395466306502085	-0.19865811692581326	1.8937368127292857	-0.6175486584840593
55	1.8333333333333333	-0.24277667674280326	1.8882188704989267	-0.5055553827097435	-0.2566507101075712	1.8870265979684522	-0.4459370495731676	-0.2542107932671551	1.7312975611707428	-0.4047247923132041													-0.2248222509891687	1.893663063934673	-0.5729847542389932	-0.22388004991442803	1.7430622436482452	-0.5315554440446225	-0.2083129101651686	1.6117620066399407	-0.47698714551173166	-0.232779658478993	1.557932022672645	-0.5482590263970223	-0.22340493367347025	1.5686151343131303	-0.5635951195429381	-0.22020949110625682	1.6207652982199225	-0.4614796926984166	-0.23816481637256726	2.0524089984456073	-0.5199475625930132	-0.2537877176606925	2.127417633335758	-0.5541587531038051	-0.2592454944107512	2.0514624344780823	-0.42838039444696474	-0.2555502511450242	1.9693471139653014	-0.34829574740138036	-0.26000365285167687	1.8951747577279778	-0.3296838875800054	-0.2129813339149933	2.054720541070663	-0.6167372335795475	-0.7572078724727549	1.9349523357239076	-0.01723827427807334	-0.19865811692581326	1.8937368127292857	-0.6175486584840593
56	1.8666666666666667	-0.24307106481661417	1.8845951031701005	-0.5049867394967466	-0.2588283574138658	1.8829220169273335	-0.44319553433195374	-0.2541056899708468	1.7320526164957417	-0.40611325242894136													-0.2288593716587514	1.8896595412967845	-0.5767443880933263	-0.22389522153727578	1.7405631553351342	-0.531235480657825	-0.2083129101651686	1.6117620066399407	-0.47698714551173166	-0.23058248244563503	1.5574656964337346	-0.5504107827976543	-0.22106448873842185	1.567585550738948	-0.5656045927941314	-0.22020949110625682	1.6207652982199225	-0.4614796926984166	-0.23912705438640092	2.052423435645291	-0.5230934812815135	-0.2539098377067096	2.124976180540332	-0.5537702632632232	-0.25845635560861496	2.0516771166281473	-0.43364631114280555	-0.2585020086261702	1.9707614437521435	-0.3499819801283098	-0.25940053885272263	1.8939041373448808	-0.3348576526894709	-0.21302125649845244	2.054472339181222	-0.6168494707491267	-0.8687116273246083	1.9260889439025277	0.09947811450887423	-0.19865811692581326	1.8937368127292857	-0.6175486584840593
57	1.9	-0.24338223924035735	1.8857257032751067	-0.5055999394442167	-0.2580499349296609	1.8840713003942757	-0.4488687739228738	-0.25400058667453856	1.7328076718207408	-0.4075017125446787													-0.22713769182371013	1.889196617440319	-0.5791224217790597	-0.22598421602200378	1.7417105488444253	-0.5377428235623878	-0.2083129101651686	1.6117620066399407	-0.47698714551173166	-0.23353295924346298	1.5575194405420676	-0.5511102824530997	-0.2208939029585652	1.5667681177100947	-0.5656227874603903	-0.22020949110625682	1.6207652982199225	-0.4614796926984166	-0.2391049957157122	2.0524505250609253	-0.5230916542931664	-0.25394705000623474	2.124910433440165	-0.5538088023390781	-0.26027617301925904	2.0516191484762754	-0.4315743102353801	-0.25633420877022456	1.967975956017576	-0.3429095902701617	-0.25964463920996794	1.8947213830591698	-0.33513900969583016	-0.21293773214641581	2.0546939457193867	-0.616894056368734	-0.9802153821764615	1.9172255520811476	0.2161945032958218	-0.19865811692581326	1.8937368127292857	-0.6175486584840593
58	1.9333333333333333	-0.24196902511072416	1.8855284715152585	-0.5106221628684046	-0.2559943547191617	1.8835820961452645	-0.45096773291906284	-0.2538954833782303	1.73356272714574	-0.40889017266041605													-0.22776560439055002	1.8898733303064592	-0.5822226247302696	-0.2258341103979538	1.7378158596573798	-0.541983745972781	-0.2083129101651686	1.6117620066399407	-0.47698714551173166	-0.2292286075940523	1.5653117014188271	-0.5520991456729678	-0.22145860015157723	1.5765443782102162	-0.5607943635903656	-0.22020949110625682	1.6207652982199225	-0.4614796926984166	-0.24003615127426575	2.052555271402619	-0.5261250700059293	-0.25487870090045855	2.1224124320528963	-0.555728293277103	-0.2594808287095479	2.0518321969146336	-0.43674014324964316	-0.25286914814479466	1.969958066843344	-0.3329617506100461	-0.2651185417124586	1.8937311078298917	-0.3370986785012754	-0.21296554002573176	2.0558694588229787	-0.6173153016843203	-1.091719137028315	1.9083621602597678	0.33291089208276936	-0.19865811692581326	1.8937368127292857	-0.6175486584840593
59	1.9666666666666666	-0.24082144164044136	1.8846299564132258	-0.5158355360200026	-0.2546878524828938	1.8823729038717467	-0.4558851792234716	-0.253790380081922	1.7343177824707388	-0.41027863277615334													-0.22853161508627465	1.8879659472783286	-0.5851759134036136	-0.22568400477390382	1.7339211704703346	-0.5462246683831743	-0.2083129101651686	1.6117620066399407	-0.47698714551173166	-0.2188412793740073	1.5759259293760952	-0.5641762658676637	-0.21352135632366265	1.5857500716048338	-0.570502695939169	-0.22020949110625682	1.6207652982199225	-0.4614796926984166	-0.24004669542179058	2.0524786401989443	-0.5262044214868308	-0.2519957784339209	2.118752734457137	-0.5619459258193737	-0.25941282191530785	2.051833373999001	-0.43682034301656675	-0.25830289379282484	1.9707004155517314	-0.32652130348313985	-0.2809211865862738	1.9081575714117789	-0.3550378999774488	-0.21376853133542745	2.0570992641815633	-0.6201424463805322	-1.2032228918801682	1.899498768438388	0.4496272808697168	-0.19865811692581326	1.8937368127292857	-0.6175486584840593
